mtllib ./_1.mtl
g polySurface1
v 0.501067 1 0
v 0.498322 0.685851 -0.052376
v 0.501067 0.685851 0
v 0.498322 1 -0.052376
v 0.490117 0.685851 -0.104178
v 0.490117 1 -0.104178
v 0.476543 0.685851 -0.154838
v 0.476543 1 -0.154838
v 0.457747 0.685851 -0.203802
v 0.457747 1 -0.203802
v 0.433937 0.685851 -0.250533
v 0.433937 1 -0.250533
v 0.405372 0.685851 -0.29452
v 0.405372 1 -0.29452
v 0.372365 0.685851 -0.335279
v 0.372365 1 -0.335279
v 0.335279 0.685851 -0.372365
v 0.335279 1 -0.372365
v 0.29452 0.685851 -0.405372
v 0.29452 1 -0.405372
v 0.250533 0.685851 -0.433937
v 0.250533 1 -0.433937
v 0.203802 0.685851 -0.457747
v 0.203802 1 -0.457747
v 0.154838 0.685851 -0.476543
v 0.154838 1 -0.476543
v 0.104178 0.685851 -0.490117
v 0.104178 1 -0.490117
v 0.052376 0.685851 -0.498322
v 0.052376 1 -0.498322
v 0 0.685851 -0.501067
v 0 1 -0.501067
v -0.052376 0.685851 -0.498322
v -0.052376 1 -0.498322
v -0.104178 0.685851 -0.490118
v -0.104178 1 -0.490118
v -0.154838 0.685851 -0.476543
v -0.154838 1 -0.476543
v -0.203802 0.685851 -0.457748
v -0.203802 1 -0.457748
v -0.250534 0.685851 -0.433937
v -0.250534 1 -0.433937
v -0.29452 0.685851 -0.405372
v -0.29452 1 -0.405372
v -0.335279 0.685851 -0.372365
v -0.335279 1 -0.372365
v -0.372365 0.685851 -0.335279
v -0.372365 1 -0.335279
v -0.405372 0.685851 -0.29452
v -0.405372 1 -0.29452
v -0.433937 0.685851 -0.250534
v -0.433937 1 -0.250534
v -0.457748 0.685851 -0.203802
v -0.457748 1 -0.203802
v -0.476543 0.685851 -0.154838
v -0.476543 1 -0.154838
v -0.490118 0.685851 -0.104178
v -0.490118 1 -0.104178
v -0.498322 0.685851 -0.052376
v -0.498322 1 -0.052376
v -0.501067 0.685851 0
v -0.501067 1 0
v -0.498322 0.685851 0.052376
v -0.498322 1 0.052376
v -0.490118 0.685851 0.104178
v -0.490118 1 0.104178
v -0.476543 0.685851 0.154838
v -0.476543 1 0.154838
v -0.457748 0.685851 0.203802
v -0.457748 1 0.203802
v -0.433937 0.685851 0.250534
v -0.433937 1 0.250534
v -0.405372 0.685851 0.29452
v -0.405372 1 0.29452
v -0.372366 0.685851 0.335279
v -0.372366 1 0.335279
v -0.335279 0.685851 0.372366
v -0.335279 1 0.372366
v -0.29452 0.685851 0.405372
v -0.29452 1 0.405372
v -0.250534 0.685851 0.433937
v -0.250534 1 0.433937
v -0.203802 0.685851 0.457748
v -0.203802 1 0.457748
v -0.154838 0.685851 0.476543
v -0.154838 1 0.476543
v -0.104178 0.685851 0.490118
v -0.104178 1 0.490118
v -0.052376 0.685851 0.498323
v -0.052376 1 0.498323
v 0 0.685851 0.501067
v 0 1 0.501067
v 0.052376 0.685851 0.498323
v 0.052376 1 0.498323
v 0.104178 0.685851 0.490118
v 0.104178 1 0.490118
v 0.154838 0.685851 0.476543
v 0.154838 1 0.476543
v 0.203803 0.685851 0.457748
v 0.203803 1 0.457748
v 0.250534 0.685851 0.433937
v 0.250534 1 0.433937
v 0.29452 0.685851 0.405372
v 0.29452 1 0.405372
v 0.33528 0.685851 0.372366
v 0.33528 1 0.372366
v 0.372366 0.685851 0.33528
v 0.372366 1 0.33528
v 0.405372 0.685851 0.29452
v 0.405372 1 0.29452
v 0.433937 0.685851 0.250534
v 0.433937 1 0.250534
v 0.457748 0.685851 0.203802
v 0.457748 1 0.203802
v 0.476544 0.685851 0.154838
v 0.476544 1 0.154838
v 0.490118 0.685851 0.104178
v 0.490118 1 0.104178
v 0.498323 0.685851 0.052376
v 0.498323 1 0.052376
v 0.501067 0.685851 0
v 0.501067 1 0
v 0.443117 1 0
v 0.44069 0.685436 -0.046318
v 0.44069 1 -0.046318
v 0.443117 0.685436 0
v 0.433434 0.685436 -0.092129
v 0.433434 1 -0.092129
v 0.421429 0.685436 -0.136931
v 0.421429 1 -0.136931
v 0.404808 0.685436 -0.180232
v 0.404808 1 -0.180232
v 0.383751 0.685436 -0.221559
v 0.383751 1 -0.221559
v 0.358489 0.685436 -0.260458
v 0.358489 1 -0.260458
v 0.3293 0.685436 -0.296503
v 0.3293 1 -0.296503
v 0.296503 0.685436 -0.3293
v 0.296503 1 -0.3293
v 0.260458 0.685436 -0.358489
v 0.260458 1 -0.358489
v 0.221559 0.685436 -0.383751
v 0.221559 1 -0.383751
v 0.180232 0.685436 -0.404808
v 0.180232 1 -0.404808
v 0.136931 0.685436 -0.42143
v 0.136931 1 -0.42143
v 0.092129 0.685436 -0.433434
v 0.092129 1 -0.433434
v 0.046318 0.685436 -0.44069
v 0.046318 1 -0.44069
v 0 0.685436 -0.443117
v 0 1 -0.443117
v -0.046318 0.685436 -0.44069
v -0.046318 1 -0.44069
v -0.092129 0.685436 -0.433434
v -0.092129 1 -0.433434
v -0.136931 0.685436 -0.42143
v -0.136931 1 -0.42143
v -0.180232 0.685436 -0.404808
v -0.180232 1 -0.404808
v -0.221559 0.685436 -0.383751
v -0.221559 1 -0.383751
v -0.260458 0.685436 -0.35849
v -0.260458 1 -0.35849
v -0.296504 0.685436 -0.3293
v -0.296504 1 -0.3293
v -0.3293 0.685436 -0.296503
v -0.3293 1 -0.296503
v -0.35849 0.685436 -0.260458
v -0.35849 1 -0.260458
v -0.383751 0.685436 -0.221559
v -0.383751 1 -0.221559
v -0.404808 0.685436 -0.180232
v -0.404808 1 -0.180232
v -0.42143 0.685436 -0.136931
v -0.42143 1 -0.136931
v -0.433434 0.685436 -0.092129
v -0.433434 1 -0.092129
v -0.44069 0.685436 -0.046318
v -0.44069 1 -0.046318
v -0.443118 0.685436 0
v -0.443118 1 0
v -0.44069 0.685436 0.046318
v -0.44069 1 0.046318
v -0.433434 0.685436 0.092129
v -0.433434 1 0.092129
v -0.42143 0.685436 0.136931
v -0.42143 1 0.136931
v -0.404808 0.685436 0.180232
v -0.404808 1 0.180232
v -0.383751 0.685436 0.221559
v -0.383751 1 0.221559
v -0.35849 0.685436 0.260458
v -0.35849 1 0.260458
v -0.329301 0.685436 0.296504
v -0.329301 1 0.296504
v -0.296504 0.685436 0.329301
v -0.296504 1 0.329301
v -0.260458 0.685436 0.35849
v -0.260458 1 0.35849
v -0.221559 0.685436 0.383751
v -0.221559 1 0.383751
v -0.180232 0.685436 0.404808
v -0.180232 1 0.404808
v -0.136931 0.685436 0.42143
v -0.136931 1 0.42143
v -0.092129 0.685436 0.433435
v -0.092129 1 0.433435
v -0.046318 0.685436 0.44069
v -0.046318 1 0.44069
v 0 0.685436 0.443118
v 0 1 0.443118
v 0.046318 0.685436 0.44069
v 0.046318 1 0.44069
v 0.092129 0.685436 0.433435
v 0.092129 1 0.433435
v 0.136931 0.685436 0.42143
v 0.136931 1 0.42143
v 0.180232 0.685436 0.404808
v 0.180232 1 0.404808
v 0.221559 0.685436 0.383751
v 0.221559 1 0.383751
v 0.260458 0.685436 0.35849
v 0.260458 1 0.35849
v 0.296504 0.685436 0.329301
v 0.296504 1 0.329301
v 0.329301 0.685436 0.296504
v 0.329301 1 0.296504
v 0.35849 0.685436 0.260458
v 0.35849 1 0.260458
v 0.383751 0.685436 0.221559
v 0.383751 1 0.221559
v 0.404808 0.685436 0.180232
v 0.404808 1 0.180232
v 0.42143 0.685436 0.136931
v 0.42143 1 0.136931
v 0.433435 0.685436 0.092129
v 0.433435 1 0.092129
v 0.440691 0.685436 0.046318
v 0.440691 1 0.046318
v 0.443117 0.685436 0
v 0.443117 1 0

vn 1 0 0
vn 0.994522 0 -0.104528
vn 1 0 0
vn 0.994522 0 -0.104528
vn 0.9781475 0 -0.2079119
vn 0.9781475 0 -0.2079119
vn 0.9510565 0 -0.3090172
vn 0.9510565 0 -0.3090172
vn 0.9135458 0 -0.4067359
vn 0.9135458 0 -0.4067359
vn 0.8660256 0 -0.4999998
vn 0.8660256 0 -0.4999998
vn 0.809018 0 -0.5877839
vn 0.809018 0 -0.5877839
vn 0.7431452 0 -0.6691302
vn 0.7431452 0 -0.6691302
vn 0.6691307 0 -0.7431447
vn 0.6691307 0 -0.7431447
vn 0.5877851 0 -0.8090171
vn 0.5877851 0 -0.8090171
vn 0.500001 0 -0.8660249
vn 0.500001 0 -0.8660249
vn 0.4067371 0 -0.9135453
vn 0.4067371 0 -0.9135453
vn 0.3090168 0 -0.9510565
vn 0.3090168 0 -0.9510565
vn 0.2079119 0 -0.9781475
vn 0.2079119 0 -0.9781475
vn 0.104529 0 -0.9945219
vn 0.104529 0 -0.9945219
vn 0 0 -1
vn 0 0 -1
vn -0.104528 0 -0.994522
vn -0.104528 0 -0.994522
vn -0.2079119 0 -0.9781475
vn -0.2079119 0 -0.9781475
vn -0.3090168 0 -0.9510565
vn -0.3090168 0 -0.9510565
vn -0.4067359 0 -0.9135458
vn -0.4067359 0 -0.9135458
vn -0.5000002 0 -0.8660253
vn -0.5000002 0 -0.8660253
vn -0.5877851 0 -0.8090171
vn -0.5877851 0 -0.8090171
vn -0.6691302 0 -0.7431452
vn -0.6691302 0 -0.7431452
vn -0.7431447 0 -0.6691307
vn -0.7431447 0 -0.6691307
vn -0.8090171 0 -0.5877851
vn -0.8090171 0 -0.5877851
vn -0.8660253 0 -0.5000002
vn -0.8660253 0 -0.5000002
vn -0.9135454 0 -0.4067367
vn -0.9135454 0 -0.4067367
vn -0.9510565 0 -0.3090172
vn -0.9510565 0 -0.3090172
vn -0.9781475 0 -0.2079119
vn -0.9781475 0 -0.2079119
vn -0.994522 0 -0.104528
vn -0.994522 0 -0.104528
vn -1 0 0
vn -1 0 0
vn -0.994522 0 0.104528
vn -0.994522 0 0.104528
vn -0.9781475 0 0.2079119
vn -0.9781475 0 0.2079119
vn -0.9510565 0 0.3090172
vn -0.9510565 0 0.3090172
vn -0.9135458 0 0.4067359
vn -0.9135458 0 0.4067359
vn -0.8660256 0 0.4999998
vn -0.8660256 0 0.4999998
vn -0.8090171 0 0.5877851
vn -0.8090171 0 0.5877851
vn -0.7431452 0 0.6691302
vn -0.7431452 0 0.6691302
vn -0.6691307 0 0.7431447
vn -0.6691307 0 0.7431447
vn -0.5877851 0 0.8090171
vn -0.5877851 0 0.8090171
vn -0.5000002 0 0.8660253
vn -0.5000002 0 0.8660253
vn -0.4067367 0 0.9135454
vn -0.4067367 0 0.9135454
vn -0.3090172 0 0.9510565
vn -0.3090172 0 0.9510565
vn -0.2079119 0 0.9781475
vn -0.2079119 0 0.9781475
vn -0.104528 0 0.994522
vn -0.104528 0 0.994522
vn 0 0 1
vn 0 0 1
vn 0.104528 0 0.994522
vn 0.104528 0 0.994522
vn 0.2079119 0 0.9781475
vn 0.2079119 0 0.9781475
vn 0.3090168 0 0.9510565
vn 0.3090168 0 0.9510565
vn 0.4067359 0 0.9135458
vn 0.4067359 0 0.9135458
vn 0.4999998 0 0.8660256
vn 0.4999998 0 0.8660256
vn 0.5877851 0 0.8090171
vn 0.5877851 0 0.8090171
vn 0.6691307 0 0.7431447
vn 0.6691307 0 0.7431447
vn 0.7431447 0 0.6691307
vn 0.7431447 0 0.6691307
vn 0.8090171 0 0.5877851
vn 0.8090171 0 0.5877851
vn 0.8660256 0 0.4999998
vn 0.8660256 0 0.4999998
vn 0.9135454 0 0.4067367
vn 0.9135454 0 0.4067367
vn 0.9510565 0 0.3090168
vn 0.9510565 0 0.3090168
vn 0.9781475 0 0.2079119
vn 0.9781475 0 0.2079119
vn 0.9945229 0 0.104519
vn 0.9945229 0 0.104519
vn 1 0 0
vn 1 0 0
vn -1 0 0
vn -0.994522 0 0.104528
vn -0.994522 0 0.104528
vn -1 0 0
vn -0.9781475 0 0.2079119
vn -0.9781475 0 0.2079119
vn -0.9510565 0 0.3090168
vn -0.9510565 0 0.3090168
vn -0.9135458 0 0.4067359
vn -0.9135458 0 0.4067359
vn -0.866026 0 0.499999
vn -0.866026 0 0.499999
vn -0.8090171 0 0.5877851
vn -0.8090171 0 0.5877851
vn -0.7431452 0 0.6691302
vn -0.7431452 0 0.6691302
vn -0.6691307 0 0.7431447
vn -0.6691307 0 0.7431447
vn -0.5877851 0 0.8090171
vn -0.5877851 0 0.8090171
vn -0.500001 0 0.8660249
vn -0.500001 0 0.8660249
vn -0.4067371 0 0.9135453
vn -0.4067371 0 0.9135453
vn -0.3090168 0 0.9510565
vn -0.3090168 0 0.9510565
vn -0.2079119 0 0.9781475
vn -0.2079119 0 0.9781475
vn -0.104528 0 0.994522
vn -0.104528 0 0.994522
vn 0 0 1
vn 0 0 1
vn 0.104528 0 0.994522
vn 0.104528 0 0.994522
vn 0.2079109 0 0.9781477
vn 0.2079109 0 0.9781477
vn 0.309016 0 0.9510569
vn 0.309016 0 0.9510569
vn 0.4067367 0 0.9135454
vn 0.4067367 0 0.9135454
vn 0.4999998 0 0.8660256
vn 0.4999998 0 0.8660256
vn 0.5877851 0 0.8090171
vn 0.5877851 0 0.8090171
vn 0.6691307 0 0.7431447
vn 0.6691307 0 0.7431447
vn 0.7431447 0 0.6691307
vn 0.7431447 0 0.6691307
vn 0.8090171 0 0.5877851
vn 0.8090171 0 0.5877851
vn 0.8660253 0 0.5000002
vn 0.8660253 0 0.5000002
vn 0.9135453 0 0.4067371
vn 0.9135453 0 0.4067371
vn 0.9510565 0 0.3090168
vn 0.9510565 0 0.3090168
vn 0.9781475 0 0.2079119
vn 0.9781475 0 0.2079119
vn 0.9945219 0 0.104529
vn 0.9945219 0 0.104529
vn 1 0 0
vn 1 0 0
vn 0.994522 0 -0.104528
vn 0.994522 0 -0.104528
vn 0.9781477 0 -0.2079109
vn 0.9781477 0 -0.2079109
vn 0.9510565 0 -0.3090168
vn 0.9510565 0 -0.3090168
vn 0.9135454 0 -0.4067367
vn 0.9135454 0 -0.4067367
vn 0.8660256 0 -0.4999998
vn 0.8660256 0 -0.4999998
vn 0.8090171 0 -0.5877851
vn 0.8090171 0 -0.5877851
vn 0.7431452 0 -0.6691302
vn 0.7431452 0 -0.6691302
vn 0.6691307 0 -0.7431447
vn 0.6691307 0 -0.7431447
vn 0.5877851 0 -0.8090171
vn 0.5877851 0 -0.8090171
vn 0.4999998 0 -0.8660256
vn 0.4999998 0 -0.8660256
vn 0.4067367 0 -0.9135454
vn 0.4067367 0 -0.9135454
vn 0.309018 0 -0.9510562
vn 0.309018 0 -0.9510562
vn 0.2079119 0 -0.9781475
vn 0.2079119 0 -0.9781475
vn 0.104528 0 -0.994522
vn 0.104528 0 -0.994522
vn 0 0 -1
vn 0 0 -1
vn -0.104528 0 -0.994522
vn -0.104528 0 -0.994522
vn -0.2079109 0 -0.9781477
vn -0.2079109 0 -0.9781477
vn -0.3090168 0 -0.9510565
vn -0.3090168 0 -0.9510565
vn -0.4067359 0 -0.9135458
vn -0.4067359 0 -0.9135458
vn -0.499999 0 -0.866026
vn -0.499999 0 -0.866026
vn -0.5877851 0 -0.8090171
vn -0.5877851 0 -0.8090171
vn -0.6691302 0 -0.7431452
vn -0.6691302 0 -0.7431452
vn -0.7431447 0 -0.6691307
vn -0.7431447 0 -0.6691307
vn -0.8090171 0 -0.5877851
vn -0.8090171 0 -0.5877851
vn -0.8660256 0 -0.4999998
vn -0.8660256 0 -0.4999998
vn -0.9135453 0 -0.4067371
vn -0.9135453 0 -0.4067371
vn -0.9510565 0 -0.3090168
vn -0.9510565 0 -0.3090168
vn -0.9781475 0 -0.2079119
vn -0.9781475 0 -0.2079119
vn -0.9945229 0 -0.104519
vn -0.9945229 0 -0.104519
vn -1 0 0
vn -1 0 0

vt 0 1
vt 0.016667 0
vt 0 0
vt 0.016667 1
vt 0.033333 0
vt 0.033333 1
vt 0.05 0
vt 0.05 1
vt 0.066667 0
vt 0.066667 1
vt 0.083333 0
vt 0.083333 1
vt 0.1 0
vt 0.1 1
vt 0.116667 0
vt 0.116667 1
vt 0.133333 0
vt 0.133333 1
vt 0.15 0
vt 0.15 1
vt 0.166667 0
vt 0.166667 1
vt 0.183333 0
vt 0.183333 1
vt 0.2 0
vt 0.2 1
vt 0.216667 0
vt 0.216667 1
vt 0.233333 0
vt 0.233333 1
vt 0.25 0
vt 0.25 1
vt 0.266667 0
vt 0.266667 1
vt 0.283333 0
vt 0.283333 1
vt 0.3 0
vt 0.3 1
vt 0.316667 0
vt 0.316667 1
vt 0.333333 0
vt 0.333333 1
vt 0.35 0
vt 0.35 1
vt 0.366667 0
vt 0.366667 1
vt 0.383333 0
vt 0.383333 1
vt 0.4 0
vt 0.4 1
vt 0.416667 0
vt 0.416667 1
vt 0.433333 0
vt 0.433333 1
vt 0.45 0
vt 0.45 1
vt 0.466667 0
vt 0.466667 1
vt 0.483334 0
vt 0.483334 1
vt 0.5 0
vt 0.5 1
vt 0.516667 0
vt 0.516667 1
vt 0.533333 0
vt 0.533333 1
vt 0.55 0
vt 0.55 1
vt 0.566667 0
vt 0.566667 1
vt 0.583333 0
vt 0.583333 1
vt 0.6 0
vt 0.6 1
vt 0.616667 0
vt 0.616667 1
vt 0.633333 0
vt 0.633333 1
vt 0.65 0
vt 0.65 1
vt 0.666667 0
vt 0.666667 1
vt 0.683333 0
vt 0.683333 1
vt 0.7 0
vt 0.7 1
vt 0.716667 0
vt 0.716667 1
vt 0.733333 0
vt 0.733333 1
vt 0.75 0
vt 0.75 1
vt 0.766667 0
vt 0.766667 1
vt 0.783333 0
vt 0.783333 1
vt 0.8 0
vt 0.8 1
vt 0.816667 0
vt 0.816667 1
vt 0.833333 0
vt 0.833333 1
vt 0.85 0
vt 0.85 1
vt 0.866666 0
vt 0.866666 1
vt 0.883333 0
vt 0.883333 1
vt 0.9 0
vt 0.9 1
vt 0.916666 0
vt 0.916666 1
vt 0.933333 0
vt 0.933333 1
vt 0.95 0
vt 0.95 1
vt 0.966666 0
vt 0.966666 1
vt 0.983333 0
vt 0.983333 1
vt 1 0
vt 1 1
vt 0 1
vt 0.016667 0
vt 0.016667 1
vt 0 0
vt 0.033333 0
vt 0.033333 1
vt 0.05 0
vt 0.05 1
vt 0.066667 0
vt 0.066667 1
vt 0.083333 0
vt 0.083333 1
vt 0.1 0
vt 0.1 1
vt 0.116667 0
vt 0.116667 1
vt 0.133333 0
vt 0.133333 1
vt 0.15 0
vt 0.15 1
vt 0.166667 0
vt 0.166667 1
vt 0.183333 0
vt 0.183333 1
vt 0.2 0
vt 0.2 1
vt 0.216667 0
vt 0.216667 1
vt 0.233333 0
vt 0.233333 1
vt 0.25 0
vt 0.25 1
vt 0.266667 0
vt 0.266667 1
vt 0.283333 0
vt 0.283333 1
vt 0.3 0
vt 0.3 1
vt 0.316667 0
vt 0.316667 1
vt 0.333333 0
vt 0.333333 1
vt 0.35 0
vt 0.35 1
vt 0.366667 0
vt 0.366667 1
vt 0.383333 0
vt 0.383333 1
vt 0.4 0
vt 0.4 1
vt 0.416667 0
vt 0.416667 1
vt 0.433333 0
vt 0.433333 1
vt 0.45 0
vt 0.45 1
vt 0.466667 0
vt 0.466667 1
vt 0.483334 0
vt 0.483334 1
vt 0.5 0
vt 0.5 1
vt 0.516667 0
vt 0.516667 1
vt 0.533333 0
vt 0.533333 1
vt 0.55 0
vt 0.55 1
vt 0.566667 0
vt 0.566667 1
vt 0.583333 0
vt 0.583333 1
vt 0.6 0
vt 0.6 1
vt 0.616667 0
vt 0.616667 1
vt 0.633333 0
vt 0.633333 1
vt 0.65 0
vt 0.65 1
vt 0.666667 0
vt 0.666667 1
vt 0.683333 0
vt 0.683333 1
vt 0.7 0
vt 0.7 1
vt 0.716667 0
vt 0.716667 1
vt 0.733333 0
vt 0.733333 1
vt 0.75 0
vt 0.75 1
vt 0.766667 0
vt 0.766667 1
vt 0.783333 0
vt 0.783333 1
vt 0.8 0
vt 0.8 1
vt 0.816667 0
vt 0.816667 1
vt 0.833333 0
vt 0.833333 1
vt 0.85 0
vt 0.85 1
vt 0.866666 0
vt 0.866666 1
vt 0.883333 0
vt 0.883333 1
vt 0.9 0
vt 0.9 1
vt 0.916666 0
vt 0.916666 1
vt 0.933333 0
vt 0.933333 1
vt 0.95 0
vt 0.95 1
vt 0.966666 0
vt 0.966666 1
vt 0.983333 0
vt 0.983333 1
vt 1 0
vt 1 1

usemtl lambert2SG
usemap lambert2SG
f 2/2/2 1/1/1 3/3/3
f 4/4/4 1/1/1 2/2/2
f 5/5/5 4/4/4 2/2/2
f 6/6/6 4/4/4 5/5/5
f 7/7/7 6/6/6 5/5/5
f 8/8/8 6/6/6 7/7/7
f 9/9/9 8/8/8 7/7/7
f 10/10/10 8/8/8 9/9/9
f 11/11/11 10/10/10 9/9/9
f 12/12/12 10/10/10 11/11/11
f 13/13/13 12/12/12 11/11/11
f 14/14/14 12/12/12 13/13/13
f 15/15/15 14/14/14 13/13/13
f 16/16/16 14/14/14 15/15/15
f 17/17/17 16/16/16 15/15/15
f 18/18/18 16/16/16 17/17/17
f 19/19/19 18/18/18 17/17/17
f 20/20/20 18/18/18 19/19/19
f 21/21/21 20/20/20 19/19/19
f 22/22/22 20/20/20 21/21/21
f 23/23/23 22/22/22 21/21/21
f 24/24/24 22/22/22 23/23/23
f 25/25/25 24/24/24 23/23/23
f 26/26/26 24/24/24 25/25/25
f 27/27/27 26/26/26 25/25/25
f 28/28/28 26/26/26 27/27/27
f 29/29/29 28/28/28 27/27/27
f 30/30/30 28/28/28 29/29/29
f 31/31/31 30/30/30 29/29/29
f 32/32/32 30/30/30 31/31/31
f 33/33/33 32/32/32 31/31/31
f 34/34/34 32/32/32 33/33/33
f 35/35/35 34/34/34 33/33/33
f 36/36/36 34/34/34 35/35/35
f 37/37/37 36/36/36 35/35/35
f 38/38/38 36/36/36 37/37/37
f 39/39/39 38/38/38 37/37/37
f 40/40/40 38/38/38 39/39/39
f 41/41/41 40/40/40 39/39/39
f 42/42/42 40/40/40 41/41/41
f 43/43/43 42/42/42 41/41/41
f 44/44/44 42/42/42 43/43/43
f 45/45/45 44/44/44 43/43/43
f 46/46/46 44/44/44 45/45/45
f 47/47/47 46/46/46 45/45/45
f 48/48/48 46/46/46 47/47/47
f 49/49/49 48/48/48 47/47/47
f 50/50/50 48/48/48 49/49/49
f 51/51/51 50/50/50 49/49/49
f 52/52/52 50/50/50 51/51/51
f 53/53/53 52/52/52 51/51/51
f 54/54/54 52/52/52 53/53/53
f 55/55/55 54/54/54 53/53/53
f 56/56/56 54/54/54 55/55/55
f 57/57/57 56/56/56 55/55/55
f 58/58/58 56/56/56 57/57/57
f 59/59/59 58/58/58 57/57/57
f 60/60/60 58/58/58 59/59/59
f 61/61/61 60/60/60 59/59/59
f 62/62/62 60/60/60 61/61/61
f 63/63/63 62/62/62 61/61/61
f 64/64/64 62/62/62 63/63/63
f 65/65/65 64/64/64 63/63/63
f 66/66/66 64/64/64 65/65/65
f 67/67/67 66/66/66 65/65/65
f 68/68/68 66/66/66 67/67/67
f 69/69/69 68/68/68 67/67/67
f 70/70/70 68/68/68 69/69/69
f 71/71/71 70/70/70 69/69/69
f 72/72/72 70/70/70 71/71/71
f 73/73/73 72/72/72 71/71/71
f 74/74/74 72/72/72 73/73/73
f 75/75/75 74/74/74 73/73/73
f 76/76/76 74/74/74 75/75/75
f 77/77/77 76/76/76 75/75/75
f 78/78/78 76/76/76 77/77/77
f 79/79/79 78/78/78 77/77/77
f 80/80/80 78/78/78 79/79/79
f 81/81/81 80/80/80 79/79/79
f 82/82/82 80/80/80 81/81/81
f 83/83/83 82/82/82 81/81/81
f 84/84/84 82/82/82 83/83/83
f 85/85/85 84/84/84 83/83/83
f 86/86/86 84/84/84 85/85/85
f 87/87/87 86/86/86 85/85/85
f 88/88/88 86/86/86 87/87/87
f 89/89/89 88/88/88 87/87/87
f 90/90/90 88/88/88 89/89/89
f 91/91/91 90/90/90 89/89/89
f 92/92/92 90/90/90 91/91/91
f 93/93/93 92/92/92 91/91/91
f 94/94/94 92/92/92 93/93/93
f 95/95/95 94/94/94 93/93/93
f 96/96/96 94/94/94 95/95/95
f 97/97/97 96/96/96 95/95/95
f 98/98/98 96/96/96 97/97/97
f 99/99/99 98/98/98 97/97/97
f 100/100/100 98/98/98 99/99/99
f 101/101/101 100/100/100 99/99/99
f 102/102/102 100/100/100 101/101/101
f 103/103/103 102/102/102 101/101/101
f 104/104/104 102/102/102 103/103/103
f 105/105/105 104/104/104 103/103/103
f 106/106/106 104/104/104 105/105/105
f 107/107/107 106/106/106 105/105/105
f 108/108/108 106/106/106 107/107/107
f 109/109/109 108/108/108 107/107/107
f 110/110/110 108/108/108 109/109/109
f 111/111/111 110/110/110 109/109/109
f 112/112/112 110/110/110 111/111/111
f 113/113/113 112/112/112 111/111/111
f 114/114/114 112/112/112 113/113/113
f 115/115/115 114/114/114 113/113/113
f 116/116/116 114/114/114 115/115/115
f 117/117/117 116/116/116 115/115/115
f 118/118/118 116/116/116 117/117/117
f 119/119/119 118/118/118 117/117/117
f 120/120/120 118/118/118 119/119/119
f 121/121/121 120/120/120 119/119/119
f 122/122/122 120/120/120 121/121/121
f 124/124/124 123/123/123 125/125/125
f 126/126/126 123/123/123 124/124/124
f 124/124/124 125/125/125 127/127/127
f 127/127/127 125/125/125 128/128/128
f 127/127/127 128/128/128 129/129/129
f 129/129/129 128/128/128 130/130/130
f 129/129/129 130/130/130 131/131/131
f 131/131/131 130/130/130 132/132/132
f 131/131/131 132/132/132 133/133/133
f 133/133/133 132/132/132 134/134/134
f 133/133/133 134/134/134 135/135/135
f 135/135/135 134/134/134 136/136/136
f 135/135/135 136/136/136 137/137/137
f 137/137/137 136/136/136 138/138/138
f 137/137/137 138/138/138 139/139/139
f 139/139/139 138/138/138 140/140/140
f 139/139/139 140/140/140 141/141/141
f 141/141/141 140/140/140 142/142/142
f 141/141/141 142/142/142 143/143/143
f 143/143/143 142/142/142 144/144/144
f 143/143/143 144/144/144 145/145/145
f 145/145/145 144/144/144 146/146/146
f 145/145/145 146/146/146 147/147/147
f 147/147/147 146/146/146 148/148/148
f 147/147/147 148/148/148 149/149/149
f 149/149/149 148/148/148 150/150/150
f 149/149/149 150/150/150 151/151/151
f 151/151/151 150/150/150 152/152/152
f 151/151/151 152/152/152 153/153/153
f 153/153/153 152/152/152 154/154/154
f 153/153/153 154/154/154 155/155/155
f 155/155/155 154/154/154 156/156/156
f 155/155/155 156/156/156 157/157/157
f 157/157/157 156/156/156 158/158/158
f 157/157/157 158/158/158 159/159/159
f 159/159/159 158/158/158 160/160/160
f 159/159/159 160/160/160 161/161/161
f 161/161/161 160/160/160 162/162/162
f 161/161/161 162/162/162 163/163/163
f 163/163/163 162/162/162 164/164/164
f 163/163/163 164/164/164 165/165/165
f 165/165/165 164/164/164 166/166/166
f 165/165/165 166/166/166 167/167/167
f 167/167/167 166/166/166 168/168/168
f 167/167/167 168/168/168 169/169/169
f 169/169/169 168/168/168 170/170/170
f 169/169/169 170/170/170 171/171/171
f 171/171/171 170/170/170 172/172/172
f 171/171/171 172/172/172 173/173/173
f 173/173/173 172/172/172 174/174/174
f 173/173/173 174/174/174 175/175/175
f 175/175/175 174/174/174 176/176/176
f 175/175/175 176/176/176 177/177/177
f 177/177/177 176/176/176 178/178/178
f 177/177/177 178/178/178 179/179/179
f 179/179/179 178/178/178 180/180/180
f 179/179/179 180/180/180 181/181/181
f 181/181/181 180/180/180 182/182/182
f 181/181/181 182/182/182 183/183/183
f 183/183/183 182/182/182 184/184/184
f 183/183/183 184/184/184 185/185/185
f 185/185/185 184/184/184 186/186/186
f 185/185/185 186/186/186 187/187/187
f 187/187/187 186/186/186 188/188/188
f 187/187/187 188/188/188 189/189/189
f 189/189/189 188/188/188 190/190/190
f 189/189/189 190/190/190 191/191/191
f 191/191/191 190/190/190 192/192/192
f 191/191/191 192/192/192 193/193/193
f 193/193/193 192/192/192 194/194/194
f 193/193/193 194/194/194 195/195/195
f 195/195/195 194/194/194 196/196/196
f 195/195/195 196/196/196 197/197/197
f 197/197/197 196/196/196 198/198/198
f 197/197/197 198/198/198 199/199/199
f 199/199/199 198/198/198 200/200/200
f 199/199/199 200/200/200 201/201/201
f 201/201/201 200/200/200 202/202/202
f 201/201/201 202/202/202 203/203/203
f 203/203/203 202/202/202 204/204/204
f 203/203/203 204/204/204 205/205/205
f 205/205/205 204/204/204 206/206/206
f 205/205/205 206/206/206 207/207/207
f 207/207/207 206/206/206 208/208/208
f 207/207/207 208/208/208 209/209/209
f 209/209/209 208/208/208 210/210/210
f 209/209/209 210/210/210 211/211/211
f 211/211/211 210/210/210 212/212/212
f 211/211/211 212/212/212 213/213/213
f 213/213/213 212/212/212 214/214/214
f 213/213/213 214/214/214 215/215/215
f 215/215/215 214/214/214 216/216/216
f 215/215/215 216/216/216 217/217/217
f 217/217/217 216/216/216 218/218/218
f 217/217/217 218/218/218 219/219/219
f 219/219/219 218/218/218 220/220/220
f 219/219/219 220/220/220 221/221/221
f 221/221/221 220/220/220 222/222/222
f 221/221/221 222/222/222 223/223/223
f 223/223/223 222/222/222 224/224/224
f 223/223/223 224/224/224 225/225/225
f 225/225/225 224/224/224 226/226/226
f 225/225/225 226/226/226 227/227/227
f 227/227/227 226/226/226 228/228/228
f 227/227/227 228/228/228 229/229/229
f 229/229/229 228/228/228 230/230/230
f 229/229/229 230/230/230 231/231/231
f 231/231/231 230/230/230 232/232/232
f 231/231/231 232/232/232 233/233/233
f 233/233/233 232/232/232 234/234/234
f 233/233/233 234/234/234 235/235/235
f 235/235/235 234/234/234 236/236/236
f 235/235/235 236/236/236 237/237/237
f 237/237/237 236/236/236 238/238/238
f 237/237/237 238/238/238 239/239/239
f 239/239/239 238/238/238 240/240/240
f 239/239/239 240/240/240 241/241/241
f 241/241/241 240/240/240 242/242/242
f 241/241/241 242/242/242 243/243/243
f 243/243/243 242/242/242 244/244/244
